<?xml version="1.0" standalone="no"?>
<!DOCTYPE svg PUBLIC "-//W3C//DTD SVG 20010904//EN"
 "http://www.w3.org/TR/2001/REC-SVG-20010904/DTD/svg10.dtd">
<svg version="1.0" xmlns="http://www.w3.org/2000/svg"
 width="1500.000000pt" height="1500.000000pt" viewBox="0 0 1500.000000 1500.000000"
 preserveAspectRatio="xMidYMid meet">

<g transform="translate(0.000000,1500.000000) scale(0.100000,-0.100000)"
fill="#000000" stroke="none">
<path d="M11342 9459 c-43 -9 -80 -44 -93 -88 -8 -30 -2 -77 44 -296 l53 -260
32 -3 c18 -2 32 1 32 5 0 5 23 117 51 249 28 131 51 254 50 271 -2 86 -78 141
-169 122z"/>
<path d="M13560 9459 c-223 -19 -388 -174 -435 -408 -14 -66 -16 -121 -13
-269 5 -201 10 -228 70 -347 43 -87 75 -123 348 -395 260 -259 290 -298 336
-430 33 -93 48 -270 39 -455 -10 -216 -36 -304 -112 -377 -50 -49 -105 -71
-175 -70 -102 0 -188 66 -234 181 -34 83 -44 200 -44 504 l0 267 -116 0 -116
0 4 -272 c4 -238 8 -283 26 -351 30 -111 75 -188 148 -256 100 -94 194 -130
339 -131 205 0 378 102 459 272 53 113 68 197 74 408 5 209 -5 300 -45 399
-61 152 -130 240 -388 496 -243 241 -273 276 -316 370 -42 93 -57 249 -42 437
14 168 36 231 107 304 63 64 115 82 190 65 63 -15 109 -50 150 -115 57 -90 59
-106 65 -431 l6 -300 118 -3 117 -3 0 210 c0 138 -5 234 -14 283 -54 281 -264
442 -546 417z"/>
<path d="M960 8060 l0 -1390 45 0 45 0 0 1177 c0 647 4 1173 8 1168 5 -6 32
-111 61 -235 31 -130 171 -623 332 -1162 153 -516 279 -940 279 -943 0 -3 54
-5 120 -5 l120 0 0 1391 0 1390 -47 -3 -48 -3 -5 -1152 -5 -1152 -59 225 c-33
124 -184 643 -336 1152 l-276 927 -117 3 -117 3 0 -1391z"/>
<path d="M3820 8060 l0 -1390 130 0 130 0 -2 1388 -3 1387 -127 3 -128 3 0
-1391z"/>
<path d="M5930 8061 l0 -1391 125 0 125 0 0 615 0 616 76 -3 76 -3 228 -610
228 -610 146 -3 146 -3 -9 23 c-5 13 -117 290 -250 616 -133 327 -239 597
-236 602 3 4 22 11 42 15 99 18 206 99 251 188 53 107 57 142 57 562 0 423 -3
453 -59 563 -28 55 -95 121 -155 151 -86 44 -150 52 -478 58 l-313 6 0 -1392z
m582 1308 c40 -9 63 -21 94 -53 69 -68 69 -67 69 -641 0 -463 -2 -515 -18
-561 -19 -54 -52 -92 -104 -118 -26 -13 -65 -16 -203 -16 l-170 0 0 693 c0
382 3 697 7 700 11 11 268 8 325 -4z"/>
<path d="M9026 9423 c-3 -16 -112 -626 -241 -1358 -130 -731 -238 -1345 -241
-1363 l-6 -33 48 3 48 3 47 280 c26 153 50 294 54 312 l6 33 322 0 322 0 49
-292 c26 -161 50 -303 53 -315 5 -22 8 -23 139 -23 100 0 134 3 134 12 0 17
-469 2739 -475 2756 -3 9 -38 12 -129 12 l-124 0 -6 -27z m223 -1333 c61 -366
113 -675 116 -687 l5 -23 -305 0 c-233 0 -305 3 -305 12 0 16 298 1776 306
1808 4 15 19 -65 40 -210 18 -129 82 -534 143 -900z"/>
<path d="M4358 5634 c-5 -4 -8 -146 -8 -317 l0 -309 148 4 c125 2 152 6 181
23 49 29 73 67 79 123 6 64 -11 115 -50 147 l-30 25 25 20 c36 28 50 72 45
135 -5 63 -28 100 -78 129 -27 16 -58 20 -169 24 -75 2 -139 1 -143 -4z m265
-75 c30 -14 57 -59 57 -96 -1 -77 -55 -113 -172 -113 l-78 0 0 110 0 110 85 0
c46 0 95 -5 108 -11z m23 -287 c58 -47 58 -127 0 -174 -17 -14 -41 -18 -118
-18 l-98 0 0 105 0 105 98 0 c77 0 101 -4 118 -18z"/>
<path d="M5295 5625 c-45 -23 -92 -81 -112 -139 -25 -72 -25 -251 1 -324 36
-104 103 -155 201 -156 154 0 232 119 223 343 -7 198 -80 291 -225 291 -32 0
-71 -7 -88 -15z m163 -65 c50 -31 74 -95 80 -211 6 -120 -14 -197 -63 -246
-28 -28 -40 -33 -82 -33 -29 0 -60 7 -79 19 -111 67 -109 404 3 473 38 24 101
22 141 -2z"/>
<path d="M6030 5425 c0 -117 5 -237 11 -264 22 -104 88 -156 194 -155 65 1 94
12 138 52 48 45 57 100 57 354 l0 228 -35 0 -35 0 0 -222 c0 -123 -5 -240 -10
-260 -15 -54 -61 -88 -119 -88 -54 0 -84 17 -108 63 -15 27 -18 68 -21 270
l-4 237 -34 0 -34 0 0 -215z"/>
<path d="M6850 5555 l0 -85 35 0 35 0 0 50 0 50 60 0 60 0 0 -280 0 -280 35 0
35 0 0 280 0 280 60 0 60 0 0 -50 0 -50 35 0 35 0 0 85 0 85 -225 0 -225 0 0
-85z"/>
<path d="M7757 5633 c-4 -3 -7 -19 -7 -35 l0 -28 70 0 70 0 0 -245 0 -244 -67
-3 -68 -3 -3 -32 -3 -33 170 0 171 0 0 35 0 35 -65 0 -65 0 0 245 0 245 65 0
65 0 0 35 0 35 -163 0 c-90 0 -167 -3 -170 -7z"/>
<path d="M8675 5625 c-45 -23 -92 -81 -112 -139 -25 -72 -25 -251 1 -324 37
-107 102 -156 209 -155 l68 0 25 -43 c23 -39 30 -44 61 -44 l34 0 -31 59 -32
60 30 43 c48 70 65 143 60 267 -7 198 -80 291 -225 291 -32 0 -71 -7 -88 -15z
m163 -65 c58 -35 77 -94 77 -235 0 -104 -3 -127 -23 -170 l-23 -50 -19 25
c-11 14 -25 37 -31 53 -9 22 -18 27 -45 27 -19 0 -34 -3 -34 -7 0 -3 14 -30
30 -60 17 -29 30 -57 30 -63 0 -17 -73 -11 -106 9 -111 67 -109 404 3 473 38
24 101 22 141 -2z"/>
<path d="M9410 5425 c0 -117 5 -237 11 -264 22 -104 88 -156 194 -155 65 1 94
12 138 52 48 45 57 100 57 354 l0 228 -35 0 -35 0 0 -222 c0 -123 -5 -240 -10
-260 -15 -54 -61 -88 -119 -88 -54 0 -84 17 -108 63 -15 27 -18 68 -21 270
l-4 237 -34 0 -34 0 0 -215z"/>
<path d="M10270 5325 l0 -315 191 0 190 0 -3 33 -3 32 -152 3 -153 3 0 104 0
105 140 0 140 0 0 35 0 35 -140 0 -140 0 0 105 0 105 150 0 150 0 0 35 0 35
-185 0 -185 0 0 -315z"/>
</g>
</svg>
